<svg xmlns="http://www.w3.org/2000/svg" xmlns:xlink="http://www.w3.org/1999/xlink" width="500" zoomAndPan="magnify" viewBox="0 0 375 374.999991" height="500" preserveAspectRatio="xMidYMid meet" version="1.0"><path fill="#e41e2c" d="M 161.691406 295.015625 C 161.691406 290.007812 157.625 285.945312 152.613281 285.945312 C 147.601562 285.945312 143.53125 290.007812 143.53125 295.015625 C 143.53125 298.902344 145.980469 302.199219 149.410156 303.496094 L 143.582031 326.757812 L 161.613281 326.757812 L 155.785156 303.496094 C 159.226562 302.199219 161.660156 298.902344 161.660156 295.015625 Z M 161.691406 295.015625 " fill-opacity="1" fill-rule="nonzero"/><path fill="#e41e2c" d="M 185.410156 327.300781 C 181.246094 327.300781 177.59375 326.4375 174.503906 324.726562 C 171.398438 323.015625 168.996094 320.582031 167.296875 317.429688 C 165.601562 314.277344 164.75 310.582031 164.75 306.359375 C 164.75 302.136719 165.601562 298.390625 167.296875 295.253906 C 168.996094 292.121094 171.398438 289.703125 174.503906 287.976562 C 177.609375 286.265625 181.246094 285.398438 185.410156 285.398438 C 188.804688 285.398438 191.832031 285.992188 194.472656 287.175781 C 197.117188 288.359375 199.261719 290.054688 200.929688 292.246094 C 202.59375 294.441406 203.652344 297.078125 204.082031 300.152344 L 194.28125 300.152344 C 193.945312 298.121094 192.984375 296.535156 191.398438 295.398438 C 189.8125 294.261719 187.828125 293.703125 185.425781 293.703125 C 181.949219 293.703125 179.210938 294.824219 177.195312 297.046875 C 175.175781 299.289062 174.167969 302.375 174.167969 306.34375 C 174.167969 310.3125 175.175781 313.414062 177.195312 315.636719 C 179.210938 317.878906 181.949219 319 185.425781 319 C 187.828125 319 189.832031 318.421875 191.398438 317.300781 C 192.984375 316.167969 193.945312 314.582031 194.28125 312.550781 L 204.082031 312.550781 C 203.652344 315.589844 202.59375 318.214844 200.929688 320.421875 C 199.261719 322.628906 197.101562 324.34375 194.472656 325.527344 C 191.832031 326.710938 188.820312 327.300781 185.410156 327.300781 Z M 185.410156 327.300781 " fill-opacity="1" fill-rule="nonzero"/><path fill="#e41e2c" d="M 227.257812 327.109375 C 223.09375 327.109375 219.441406 326.246094 216.316406 324.535156 C 213.195312 322.824219 210.777344 320.40625 209.03125 317.285156 C 207.300781 314.167969 206.4375 310.503906 206.4375 306.261719 C 206.4375 302.023438 207.300781 298.3125 209.03125 295.191406 C 210.761719 292.070312 213.195312 289.671875 216.316406 287.960938 C 219.441406 286.246094 223.078125 285.414062 227.257812 285.414062 C 231.4375 285.414062 235.121094 286.265625 238.242188 287.945312 C 241.363281 289.625 243.78125 292.023438 245.496094 295.144531 C 247.210938 298.261719 248.074219 301.976562 248.074219 306.261719 C 248.074219 310.550781 247.210938 314.183594 245.480469 317.320312 C 243.75 320.453125 241.316406 322.871094 238.195312 324.566406 C 235.070312 326.261719 231.4375 327.109375 227.257812 327.109375 Z M 227.304688 318.902344 C 230.9375 318.902344 233.742188 317.75 235.710938 315.445312 C 237.679688 313.144531 238.660156 310.085938 238.660156 306.246094 C 238.660156 302.40625 237.664062 299.304688 235.710938 297.015625 C 233.742188 294.726562 230.921875 293.589844 227.257812 293.589844 C 223.589844 293.589844 220.800781 294.726562 218.816406 297.015625 C 216.832031 299.304688 215.835938 302.359375 215.835938 306.183594 C 215.835938 310.007812 216.832031 313.125 218.816406 315.429688 C 220.800781 317.734375 223.621094 318.886719 227.304688 318.886719 Z M 227.304688 318.902344 " fill-opacity="1" fill-rule="nonzero"/><path fill="#e41e2c" d="M 291.539062 326.503906 L 281.578125 326.503906 L 261.703125 300.007812 L 261.511719 300.007812 L 261.511719 326.503906 L 252.496094 326.503906 L 252.496094 286.007812 L 262.054688 286.007812 L 282.328125 313.253906 L 282.523438 313.253906 L 282.523438 286.007812 L 291.523438 286.007812 L 291.523438 326.503906 Z M 291.539062 326.503906 " fill-opacity="1" fill-rule="nonzero"/><path fill="#e41e2c" d="M 203.234375 114.269531 C 210.808594 115.804688 222.4375 118.71875 235.183594 119.839844 C 253.488281 121.4375 272.144531 121.054688 284.445312 121.644531 C 285.964844 121.726562 287.292969 122.765625 287.824219 124.191406 C 291.921875 135.101562 294.195312 146.910156 294.195312 159.246094 C 294.195312 211.339844 254.222656 254.105469 203.25 258.617188 C 200.894531 258.824219 198.863281 256.984375 198.863281 254.617188 C 198.863281 254.617188 198.863281 152.347656 198.863281 118.253906 C 198.863281 115.070312 200.929688 113.804688 203.234375 114.269531 Z M 203.234375 114.269531 " fill-opacity="1" fill-rule="nonzero"/><path fill="#e41e2c" d="M 185.410156 118.972656 C 176.28125 121.453125 166.320312 125.46875 148.832031 128.222656 C 125.371094 131.917969 100.660156 133.308594 100.660156 133.308594 C 98.964844 133.46875 97.523438 134.667969 97.136719 136.316406 C 95.390625 143.710938 94.449219 151.421875 94.449219 159.339844 C 94.449219 211.433594 134.417969 254.199219 185.394531 258.710938 C 187.75 258.921875 189.78125 257.082031 189.78125 254.714844 C 189.78125 254.714844 189.78125 155.902344 189.78125 122.957031 C 189.78125 119.949219 187.394531 118.429688 185.410156 118.972656 Z M 185.410156 118.972656 " fill-opacity="1" fill-rule="nonzero"/><path fill="#e41e2c" d="M 180.703125 100 C 180.703125 100.890625 180.613281 101.777344 180.441406 102.652344 C 180.265625 103.527344 180.007812 104.378906 179.664062 105.203125 C 179.324219 106.027344 178.902344 106.8125 178.40625 107.554688 C 177.910156 108.296875 177.347656 108.984375 176.714844 109.617188 C 176.082031 110.246094 175.394531 110.808594 174.652344 111.304688 C 173.910156 111.800781 173.125 112.222656 172.296875 112.5625 C 171.472656 112.90625 170.621094 113.164062 169.746094 113.335938 C 168.867188 113.511719 167.984375 113.597656 167.089844 113.597656 C 166.195312 113.597656 165.308594 113.511719 164.433594 113.335938 C 163.558594 113.164062 162.707031 112.90625 161.878906 112.5625 C 161.054688 112.222656 160.269531 111.800781 159.527344 111.304688 C 158.785156 110.808594 158.097656 110.246094 157.464844 109.617188 C 156.832031 108.984375 156.269531 108.296875 155.769531 107.554688 C 155.273438 106.8125 154.855469 106.027344 154.511719 105.203125 C 154.171875 104.378906 153.914062 103.527344 153.738281 102.652344 C 153.5625 101.777344 153.476562 100.890625 153.476562 100 C 153.476562 99.105469 153.5625 98.222656 153.738281 97.347656 C 153.914062 96.46875 154.171875 95.621094 154.511719 94.792969 C 154.855469 93.96875 155.273438 93.1875 155.769531 92.445312 C 156.269531 91.699219 156.832031 91.015625 157.464844 90.382812 C 158.097656 89.75 158.785156 89.1875 159.527344 88.691406 C 160.269531 88.195312 161.054688 87.777344 161.878906 87.433594 C 162.707031 87.09375 163.558594 86.835938 164.433594 86.660156 C 165.308594 86.488281 166.195312 86.398438 167.089844 86.398438 C 167.984375 86.398438 168.867188 86.488281 169.746094 86.660156 C 170.621094 86.835938 171.472656 87.09375 172.296875 87.433594 C 173.125 87.777344 173.910156 88.195312 174.652344 88.691406 C 175.394531 89.1875 176.082031 89.75 176.714844 90.382812 C 177.347656 91.015625 177.910156 91.699219 178.40625 92.445312 C 178.902344 93.1875 179.324219 93.96875 179.664062 94.792969 C 180.007812 95.621094 180.265625 96.46875 180.441406 97.347656 C 180.613281 98.222656 180.703125 99.105469 180.703125 100 Z M 180.703125 100 " fill-opacity="1" fill-rule="nonzero"/><path fill="#e41e2c" d="M 235.167969 90.910156 C 235.167969 91.804688 235.078125 92.6875 234.90625 93.5625 C 234.730469 94.441406 234.472656 95.289062 234.132812 96.117188 C 233.789062 96.941406 233.371094 97.722656 232.875 98.464844 C 232.375 99.210938 231.8125 99.894531 231.179688 100.527344 C 230.546875 101.160156 229.859375 101.722656 229.117188 102.21875 C 228.375 102.714844 227.589844 103.132812 226.765625 103.476562 C 225.9375 103.816406 225.085938 104.074219 224.210938 104.25 C 223.332031 104.421875 222.449219 104.511719 221.554688 104.511719 C 220.660156 104.511719 219.777344 104.421875 218.898438 104.25 C 218.023438 104.074219 217.171875 103.816406 216.34375 103.476562 C 215.519531 103.132812 214.734375 102.714844 213.992188 102.21875 C 213.25 101.722656 212.5625 101.160156 211.929688 100.527344 C 211.296875 99.894531 210.734375 99.210938 210.238281 98.464844 C 209.738281 97.722656 209.320312 96.941406 208.980469 96.117188 C 208.636719 95.289062 208.378906 94.441406 208.203125 93.5625 C 208.03125 92.6875 207.941406 91.804688 207.941406 90.910156 C 207.941406 90.019531 208.03125 89.132812 208.203125 88.257812 C 208.378906 87.382812 208.636719 86.53125 208.980469 85.707031 C 209.320312 84.882812 209.738281 84.097656 210.238281 83.355469 C 210.734375 82.613281 211.296875 81.925781 211.929688 81.296875 C 212.5625 80.664062 213.25 80.101562 213.992188 79.605469 C 214.734375 79.109375 215.519531 78.6875 216.34375 78.347656 C 217.171875 78.003906 218.023438 77.746094 218.898438 77.574219 C 219.777344 77.398438 220.660156 77.3125 221.554688 77.3125 C 222.449219 77.3125 223.332031 77.398438 224.210938 77.574219 C 225.085938 77.746094 225.9375 78.003906 226.765625 78.347656 C 227.589844 78.6875 228.375 79.109375 229.117188 79.605469 C 229.859375 80.101562 230.546875 80.664062 231.179688 81.296875 C 231.8125 81.925781 232.375 82.613281 232.875 83.355469 C 233.371094 84.097656 233.789062 84.882812 234.132812 85.707031 C 234.472656 86.53125 234.730469 87.382812 234.90625 88.257812 C 235.078125 89.132812 235.167969 90.019531 235.167969 90.910156 Z M 235.167969 90.910156 " fill-opacity="1" fill-rule="nonzero"/><path fill="#e41e2c" d="M 51.449219 71.214844 C 49.621094 69.390625 46.53125 69.742188 45.1875 71.953125 C 36.699219 85.886719 38.539062 104.367188 50.648438 116.476562 C 62.753906 128.589844 81.25 130.414062 95.214844 121.933594 C 97.425781 120.589844 97.777344 117.519531 95.953125 115.679688 Z M 51.449219 71.214844 " fill-opacity="1" fill-rule="nonzero"/><path fill="#e41e2c" d="M 86.777344 96.269531 L 101.078125 110.558594 C 102.902344 112.382812 105.992188 112.03125 107.339844 109.824219 C 113.632812 99.472656 114.242188 86.625 109.179688 75.742188 C 108.027344 73.246094 104.679688 72.71875 102.742188 74.671875 L 86.777344 90.625 C 85.207031 92.191406 85.207031 94.71875 86.777344 96.285156 Z M 86.777344 96.269531 " fill-opacity="1" fill-rule="nonzero"/><path fill="#e41e2c" d="M 323.550781 48.59375 C 325.378906 46.769531 328.46875 47.121094 329.8125 49.328125 C 338.300781 63.265625 336.476562 81.742188 324.351562 93.855469 C 312.230469 105.964844 293.75 107.789062 279.785156 99.3125 C 277.574219 97.96875 277.222656 94.894531 279.046875 93.054688 Z M 323.550781 48.59375 " fill-opacity="1" fill-rule="nonzero"/><path fill="#e41e2c" d="M 288.222656 73.648438 L 273.921875 87.933594 C 272.097656 89.757812 269.007812 89.40625 267.660156 87.199219 C 261.367188 76.847656 260.757812 64 265.820312 53.121094 C 266.972656 50.625 270.320312 50.097656 272.257812 52.046875 L 288.222656 68 C 289.792969 69.566406 289.792969 72.097656 288.222656 73.664062 Z M 288.222656 73.648438 " fill-opacity="1" fill-rule="nonzero"/><path fill="#e41e2c" d="M 114.546875 326.757812 L 98.578125 286.265625 L 108.941406 286.265625 L 120.054688 315.957031 L 120.3125 315.957031 L 131.265625 286.265625 L 141.417969 286.265625 L 125.453125 326.757812 Z M 114.546875 326.757812 " fill-opacity="1" fill-rule="nonzero"/></svg>